STARTFONT 2.1
COMMENT Exported by Fony v1.4.6
FONT Fixed
SIZE 24 100 100
FONTBOUNDINGBOX 14 23 0 -2
STARTPROPERTIES 6
COPYRIGHT "Public domain terminal emulator font.  Share and enjoy. original font -Misc-Fixed-Medium-R-SemiCondensed--12-110-75-75-C-60-ISO10646-1"
RESOLUTION_X 100
RESOLUTION_Y 100
FONT_ASCENT 22
FONT_DESCENT 2
DEFAULT_CHAR 0
ENDPROPERTIES
CHARS 256
STARTCHAR 000
ENCODING 0
SWIDTH 504 0
DWIDTH 7 0
BBX 0 0 0 0
BITMAP
ENDCHAR
STARTCHAR 001
ENCODING 1
SWIDTH 864 0
DWIDTH 12 0
BBX 10 16 0 2
BITMAP
3000
3000
FF00
FF00
F0C0
F0C0
C0C0
C0C0
C0C0
C0C0
C3C0
C3C0
3FC0
3FC0
0300
0300
ENDCHAR
STARTCHAR 002
ENCODING 2
SWIDTH 864 0
DWIDTH 12 0
BBX 10 16 0 2
BITMAP
F000
F000
FFC0
FFC0
C0C0
C0C0
C0C0
C0C0
C0C0
C0C0
C0C0
C0C0
C0C0
C0C0
FFC0
FFC0
ENDCHAR
STARTCHAR 003
ENCODING 3
SWIDTH 864 0
DWIDTH 12 0
BBX 10 10 0 4
BITMAP
0C00
0E00
0F00
0F80
FFC0
FFC0
0F80
0F00
0E00
0C00
ENDCHAR
STARTCHAR 004
ENCODING 4
SWIDTH 864 0
DWIDTH 12 0
BBX 10 16 0 2
BITMAP
0C00
1E00
3F00
7F80
FFC0
FFC0
0C00
0C00
0C00
0C00
0C00
0C00
0C00
0C00
FC00
FC00
ENDCHAR
STARTCHAR 005
ENCODING 5
SWIDTH 864 0
DWIDTH 12 0
BBX 10 18 0 0
BITMAP
0C00
0C00
3F00
3F00
CCC0
CCC0
CCC0
CCC0
CFC0
CFC0
C0C0
C0C0
C0C0
C0C0
3F00
3F00
0C00
0C00
ENDCHAR
STARTCHAR 006
ENCODING 6
SWIDTH 1008 0
DWIDTH 14 0
BBX 13 10 0 4
BITMAP
F380
F380
3DE0
3DE0
0E78
0E78
3DE0
3DE0
F380
F380
ENDCHAR
STARTCHAR 007
ENCODING 7
SWIDTH 864 0
DWIDTH 12 0
BBX 10 18 0 0
BITMAP
FFC0
FFC0
CCC0
CCC0
C0C0
C0C0
C0C0
C0C0
C0C0
C0C0
C0C0
C0C0
C0C0
C0C0
CCC0
CCC0
FFC0
FFC0
ENDCHAR
STARTCHAR 008
ENCODING 8
SWIDTH 864 0
DWIDTH 12 0
BBX 10 20 0 -2
BITMAP
0C00
1E00
3300
3300
3300
3300
3300
3300
3300
7380
E1C0
C0C0
CCC0
CCC0
CCC0
CCC0
C0C0
E1C0
7F80
3F00
ENDCHAR
STARTCHAR 009
ENCODING 9
SWIDTH 864 0
DWIDTH 12 0
BBX 6 6 0 8
BITMAP
30
78
CC
CC
78
30
ENDCHAR
STARTCHAR 010
ENCODING 10
SWIDTH 504 0
DWIDTH 7 0
BBX 0 0 0 0
BITMAP
ENDCHAR
STARTCHAR 011
ENCODING 11
SWIDTH 504 0
DWIDTH 7 0
BBX 0 0 0 0
BITMAP
ENDCHAR
STARTCHAR 012
ENCODING 12
SWIDTH 504 0
DWIDTH 7 0
BBX 0 0 0 0
BITMAP
ENDCHAR
STARTCHAR 013
ENCODING 13
SWIDTH 504 0
DWIDTH 7 0
BBX 0 0 0 0
BITMAP
ENDCHAR
STARTCHAR 014
ENCODING 14
SWIDTH 504 0
DWIDTH 7 0
BBX 0 0 0 0
BITMAP
ENDCHAR
STARTCHAR 015
ENCODING 15
SWIDTH 504 0
DWIDTH 7 0
BBX 0 0 0 0
BITMAP
ENDCHAR
STARTCHAR 016
ENCODING 16
SWIDTH 504 0
DWIDTH 7 0
BBX 0 0 0 0
BITMAP
ENDCHAR
STARTCHAR 017
ENCODING 17
SWIDTH 504 0
DWIDTH 7 0
BBX 0 0 0 0
BITMAP
ENDCHAR
STARTCHAR 018
ENCODING 18
SWIDTH 504 0
DWIDTH 7 0
BBX 0 0 0 0
BITMAP
ENDCHAR
STARTCHAR 019
ENCODING 19
SWIDTH 504 0
DWIDTH 7 0
BBX 0 0 0 0
BITMAP
ENDCHAR
STARTCHAR 020
ENCODING 20
SWIDTH 504 0
DWIDTH 7 0
BBX 0 0 0 0
BITMAP
ENDCHAR
STARTCHAR 021
ENCODING 21
SWIDTH 504 0
DWIDTH 7 0
BBX 0 0 0 0
BITMAP
ENDCHAR
STARTCHAR 022
ENCODING 22
SWIDTH 504 0
DWIDTH 7 0
BBX 0 0 0 0
BITMAP
ENDCHAR
STARTCHAR 023
ENCODING 23
SWIDTH 504 0
DWIDTH 7 0
BBX 0 0 0 0
BITMAP
ENDCHAR
STARTCHAR 024
ENCODING 24
SWIDTH 504 0
DWIDTH 7 0
BBX 0 0 0 0
BITMAP
ENDCHAR
STARTCHAR 025
ENCODING 25
SWIDTH 504 0
DWIDTH 7 0
BBX 0 0 0 0
BITMAP
ENDCHAR
STARTCHAR 026
ENCODING 26
SWIDTH 504 0
DWIDTH 7 0
BBX 0 0 0 0
BITMAP
ENDCHAR
STARTCHAR 027
ENCODING 27
SWIDTH 504 0
DWIDTH 7 0
BBX 0 0 0 0
BITMAP
ENDCHAR
STARTCHAR 028
ENCODING 28
SWIDTH 504 0
DWIDTH 7 0
BBX 0 0 0 0
BITMAP
ENDCHAR
STARTCHAR 029
ENCODING 29
SWIDTH 504 0
DWIDTH 7 0
BBX 0 0 0 0
BITMAP
ENDCHAR
STARTCHAR 030
ENCODING 30
SWIDTH 504 0
DWIDTH 7 0
BBX 0 0 0 0
BITMAP
ENDCHAR
STARTCHAR 031
ENCODING 31
SWIDTH 504 0
DWIDTH 7 0
BBX 0 0 0 0
BITMAP
ENDCHAR
STARTCHAR 032
ENCODING 32
SWIDTH 864 0
DWIDTH 12 0
BBX 0 0 0 0
BITMAP
ENDCHAR
STARTCHAR 033
ENCODING 33
SWIDTH 864 0
DWIDTH 12 0
BBX 2 14 4 2
BITMAP
C0
C0
C0
C0
C0
C0
C0
C0
C0
C0
00
00
C0
C0
ENDCHAR
STARTCHAR 034
ENCODING 34
SWIDTH 864 0
DWIDTH 12 0
BBX 6 6 2 12
BITMAP
CC
CC
CC
CC
CC
CC
ENDCHAR
STARTCHAR 035
ENCODING 35
SWIDTH 864 0
DWIDTH 12 0
BBX 10 12 0 2
BITMAP
3300
3300
FFC0
FFC0
3300
3300
3300
3300
FFC0
FFC0
3300
3300
ENDCHAR
STARTCHAR 036
ENCODING 36
SWIDTH 864 0
DWIDTH 12 0
BBX 10 19 0 0
BITMAP
0C00
0C00
1E00
3F00
6F80
CDC0
CCC0
CC00
EC00
7F00
3F80
0DC0
0CC0
CCC0
EDC0
7F80
3F00
0C00
0C00
ENDCHAR
STARTCHAR 037
ENCODING 37
SWIDTH 864 0
DWIDTH 12 0
BBX 10 14 0 2
BITMAP
E0C0
E0C0
E0C0
01C0
0380
0700
0E00
1C00
3800
7000
E000
C1C0
C1C0
C1C0
ENDCHAR
STARTCHAR 038
ENCODING 38
SWIDTH 864 0
DWIDTH 12 0
BBX 10 14 0 2
BITMAP
3000
7800
CC00
CC00
CC00
CC00
7800
7800
DCC0
CFC0
C780
C780
7FC0
3CC0
ENDCHAR
STARTCHAR 039
ENCODING 39
SWIDTH 864 0
DWIDTH 12 0
BBX 2 6 4 12
BITMAP
C0
C0
C0
C0
C0
C0
ENDCHAR
STARTCHAR 040
ENCODING 40
SWIDTH 864 0
DWIDTH 12 0
BBX 6 18 2 0
BITMAP
0C
1C
38
30
60
60
C0
C0
C0
C0
C0
C0
E0
60
70
38
1C
0C
ENDCHAR
STARTCHAR 041
ENCODING 41
SWIDTH 864 0
DWIDTH 12 0
BBX 6 18 2 0
BITMAP
C0
E0
70
30
18
18
0C
0C
0C
0C
0C
0C
18
18
30
70
E0
C0
ENDCHAR
STARTCHAR 042
ENCODING 42
SWIDTH 864 0
DWIDTH 12 0
BBX 10 14 0 2
BITMAP
0C00
0C00
CCC0
EDC0
7F80
3F00
0C00
0C00
3F00
7F80
EDC0
CCC0
0C00
0C00
ENDCHAR
STARTCHAR 043
ENCODING 43
SWIDTH 864 0
DWIDTH 12 0
BBX 10 10 0 4
BITMAP
0C00
0C00
0C00
0C00
FFC0
FFC0
0C00
0C00
0C00
0C00
ENDCHAR
STARTCHAR 044
ENCODING 44
SWIDTH 864 0
DWIDTH 12 0
BBX 4 6 2 0
BITMAP
F0
F0
30
30
E0
C0
ENDCHAR
STARTCHAR 045
ENCODING 45
SWIDTH 864 0
DWIDTH 12 0
BBX 10 2 0 8
BITMAP
FFC0
FFC0
ENDCHAR
STARTCHAR 046
ENCODING 46
SWIDTH 864 0
DWIDTH 12 0
BBX 4 4 2 2
BITMAP
F0
F0
F0
F0
ENDCHAR
STARTCHAR 047
ENCODING 47
SWIDTH 864 0
DWIDTH 12 0
BBX 10 14 0 2
BITMAP
00C0
01C0
0380
0300
0300
0700
0E00
1C00
3800
3000
3000
7000
E000
C000
ENDCHAR
STARTCHAR 048
ENCODING 48
SWIDTH 864 0
DWIDTH 12 0
BBX 10 14 0 2
BITMAP
3F00
7F80
C0C0
C1C0
C3C0
C7C0
CEC0
DCC0
F8C0
F0C0
E0C0
C0C0
7F80
3F00
ENDCHAR
STARTCHAR 049
ENCODING 49
SWIDTH 864 0
DWIDTH 12 0
BBX 6 14 2 2
BITMAP
30
30
F0
F0
30
30
30
30
30
30
30
30
FC
FC
ENDCHAR
STARTCHAR 050
ENCODING 50
SWIDTH 864 0
DWIDTH 12 0
BBX 10 14 0 2
BITMAP
3F00
7F80
C0C0
C0C0
00C0
01C0
0380
0700
0E00
1C00
3800
7000
FFC0
FFC0
ENDCHAR
STARTCHAR 051
ENCODING 51
SWIDTH 864 0
DWIDTH 12 0
BBX 10 14 0 2
BITMAP
FFC0
FFC0
00C0
01C0
0380
0700
0F00
0F80
01C0
00C0
C0C0
E1C0
7F80
3F00
ENDCHAR
STARTCHAR 052
ENCODING 52
SWIDTH 864 0
DWIDTH 12 0
BBX 10 14 0 2
BITMAP
0300
0700
0F00
1F00
3B00
7300
E300
C300
FFC0
FFC0
0300
0300
0300
0300
ENDCHAR
STARTCHAR 053
ENCODING 53
SWIDTH 864 0
DWIDTH 12 0
BBX 10 14 0 2
BITMAP
FFC0
FFC0
C000
C000
FF00
FF80
01C0
00C0
00C0
00C0
C0C0
E1C0
7F80
3F00
ENDCHAR
STARTCHAR 054
ENCODING 54
SWIDTH 864 0
DWIDTH 12 0
BBX 10 14 0 2
BITMAP
0F00
1F00
3800
7000
E000
C000
FF00
FF80
C1C0
C0C0
C0C0
E1C0
7F80
3F00
ENDCHAR
STARTCHAR 055
ENCODING 55
SWIDTH 864 0
DWIDTH 12 0
BBX 10 14 0 2
BITMAP
FFC0
FFC0
00C0
00C0
0180
0300
0600
0C00
0C00
0C00
0C00
0C00
0C00
0C00
ENDCHAR
STARTCHAR 056
ENCODING 56
SWIDTH 864 0
DWIDTH 12 0
BBX 10 14 0 2
BITMAP
3F00
7F80
C0C0
C0C0
C0C0
C0C0
7F80
7F80
C0C0
C0C0
C0C0
C0C0
7F80
3F00
ENDCHAR
STARTCHAR 057
ENCODING 57
SWIDTH 864 0
DWIDTH 12 0
BBX 10 14 0 2
BITMAP
3F00
7F80
C0C0
C0C0
C0C0
C0C0
7FC0
3FC0
00C0
01C0
0380
0700
3E00
3C00
ENDCHAR
STARTCHAR 058
ENCODING 58
SWIDTH 864 0
DWIDTH 12 0
BBX 4 10 2 2
BITMAP
F0
F0
F0
F0
00
00
F0
F0
F0
F0
ENDCHAR
STARTCHAR 059
ENCODING 59
SWIDTH 864 0
DWIDTH 12 0
BBX 4 12 2 0
BITMAP
F0
F0
F0
F0
00
00
F0
F0
30
30
E0
C0
ENDCHAR
STARTCHAR 060
ENCODING 60
SWIDTH 864 0
DWIDTH 12 0
BBX 6 10 2 4
BITMAP
0C
1C
38
70
E0
E0
70
38
1C
0C
ENDCHAR
STARTCHAR 061
ENCODING 61
SWIDTH 864 0
DWIDTH 12 0
BBX 10 6 0 6
BITMAP
FFC0
FFC0
0000
0000
FFC0
FFC0
ENDCHAR
STARTCHAR 062
ENCODING 62
SWIDTH 864 0
DWIDTH 12 0
BBX 6 10 2 4
BITMAP
C0
E0
70
38
1C
1C
38
70
E0
C0
ENDCHAR
STARTCHAR 063
ENCODING 63
SWIDTH 864 0
DWIDTH 12 0
BBX 10 14 0 2
BITMAP
3F00
7F80
E1C0
C1C0
0380
0700
0E00
0C00
0C00
0C00
0000
0000
0C00
0C00
ENDCHAR
STARTCHAR 064
ENCODING 64
SWIDTH 864 0
DWIDTH 12 0
BBX 10 14 0 2
BITMAP
3F00
7F80
C0C0
C0C0
C7C0
CFC0
CCC0
CCC0
CFC0
C780
C000
C000
7F00
3F00
ENDCHAR
STARTCHAR 065
ENCODING 65
SWIDTH 864 0
DWIDTH 12 0
BBX 10 14 0 2
BITMAP
3F00
7F80
C0C0
C0C0
C0C0
C0C0
FFC0
FFC0
C0C0
C0C0
C0C0
C0C0
C0C0
C0C0
ENDCHAR
STARTCHAR 066
ENCODING 66
SWIDTH 864 0
DWIDTH 12 0
BBX 10 14 0 2
BITMAP
FF00
FF80
30C0
30C0
30C0
30C0
3F80
3F80
30C0
30C0
30C0
30C0
FF80
FF00
ENDCHAR
STARTCHAR 067
ENCODING 67
SWIDTH 864 0
DWIDTH 12 0
BBX 10 14 0 2
BITMAP
3F00
7F80
E1C0
C0C0
C000
C000
C000
C000
C000
C000
C0C0
E1C0
7F80
3F00
ENDCHAR
STARTCHAR 068
ENCODING 68
SWIDTH 864 0
DWIDTH 12 0
BBX 10 14 0 2
BITMAP
FF00
FF80
31C0
30C0
30C0
30C0
30C0
30C0
30C0
30C0
30C0
31C0
FF80
FF00
ENDCHAR
STARTCHAR 069
ENCODING 69
SWIDTH 864 0
DWIDTH 12 0
BBX 10 14 0 2
BITMAP
FFC0
FFC0
C000
C000
C000
C000
FF00
FF00
C000
C000
C000
C000
FFC0
FFC0
ENDCHAR
STARTCHAR 070
ENCODING 70
SWIDTH 864 0
DWIDTH 12 0
BBX 10 14 0 2
BITMAP
FFC0
FFC0
C000
C000
C000
C000
FF00
FF00
C000
C000
C000
C000
C000
C000
ENDCHAR
STARTCHAR 071
ENCODING 71
SWIDTH 864 0
DWIDTH 12 0
BBX 10 14 0 2
BITMAP
3F00
7F80
E1C0
C0C0
C000
C000
C000
C000
C3C0
C3C0
C0C0
E1C0
7F80
3F00
ENDCHAR
STARTCHAR 072
ENCODING 72
SWIDTH 864 0
DWIDTH 12 0
BBX 10 14 0 2
BITMAP
C0C0
C0C0
C0C0
C0C0
C0C0
C0C0
FFC0
FFC0
C0C0
C0C0
C0C0
C0C0
C0C0
C0C0
ENDCHAR
STARTCHAR 073
ENCODING 73
SWIDTH 864 0
DWIDTH 12 0
BBX 6 14 2 2
BITMAP
FC
FC
30
30
30
30
30
30
30
30
30
30
FC
FC
ENDCHAR
STARTCHAR 074
ENCODING 74
SWIDTH 864 0
DWIDTH 12 0
BBX 10 14 0 2
BITMAP
0FC0
0FC0
0300
0300
0300
0300
0300
0300
0300
0300
C300
E700
7E00
3C00
ENDCHAR
STARTCHAR 075
ENCODING 75
SWIDTH 864 0
DWIDTH 12 0
BBX 10 14 0 2
BITMAP
C0C0
C1C0
C380
C700
CE00
DC00
F800
F800
DC00
CE00
C700
C380
C1C0
C0C0
ENDCHAR
STARTCHAR 076
ENCODING 76
SWIDTH 864 0
DWIDTH 12 0
BBX 10 14 0 2
BITMAP
C000
C000
C000
C000
C000
C000
C000
C000
C000
C000
C000
C000
FFC0
FFC0
ENDCHAR
STARTCHAR 077
ENCODING 77
SWIDTH 864 0
DWIDTH 12 0
BBX 10 14 0 2
BITMAP
C0C0
E1C0
F3C0
FFC0
DEC0
CCC0
C0C0
C0C0
C0C0
C0C0
C0C0
C0C0
C0C0
C0C0
ENDCHAR
STARTCHAR 078
ENCODING 78
SWIDTH 864 0
DWIDTH 12 0
BBX 10 14 0 2
BITMAP
C0C0
C0C0
C0C0
E0C0
F0C0
F8C0
DCC0
CEC0
C7C0
C3C0
C1C0
C0C0
C0C0
C0C0
ENDCHAR
STARTCHAR 079
ENCODING 79
SWIDTH 864 0
DWIDTH 12 0
BBX 10 14 0 2
BITMAP
3F00
7F80
E1C0
C0C0
C0C0
C0C0
C0C0
C0C0
C0C0
C0C0
C0C0
E1C0
7F80
3F00
ENDCHAR
STARTCHAR 080
ENCODING 80
SWIDTH 864 0
DWIDTH 12 0
BBX 10 14 0 2
BITMAP
FF00
FF80
C1C0
C0C0
C0C0
C1C0
FF80
FF00
C000
C000
C000
C000
C000
C000
ENDCHAR
STARTCHAR 081
ENCODING 81
SWIDTH 864 0
DWIDTH 12 0
BBX 10 14 0 2
BITMAP
3F00
7F80
E1C0
C0C0
C0C0
C0C0
C0C0
C0C0
CCC0
CEC0
C700
E380
7DC0
3CC0
ENDCHAR
STARTCHAR 082
ENCODING 82
SWIDTH 864 0
DWIDTH 12 0
BBX 10 14 0 2
BITMAP
FF00
FF80
C1C0
C0C0
C0C0
C1C0
FF80
FF00
DC00
CE00
C700
C380
C1C0
C0C0
ENDCHAR
STARTCHAR 083
ENCODING 83
SWIDTH 864 0
DWIDTH 12 0
BBX 10 14 0 2
BITMAP
3F00
7F80
E1C0
C0C0
C000
E000
7F00
3F80
01C0
00C0
C0C0
E1C0
7F80
3F00
ENDCHAR
STARTCHAR 084
ENCODING 84
SWIDTH 864 0
DWIDTH 12 0
BBX 10 14 0 2
BITMAP
FFC0
FFC0
0C00
0C00
0C00
0C00
0C00
0C00
0C00
0C00
0C00
0C00
0C00
0C00
ENDCHAR
STARTCHAR 085
ENCODING 85
SWIDTH 864 0
DWIDTH 12 0
BBX 10 14 0 2
BITMAP
C0C0
C0C0
C0C0
C0C0
C0C0
C0C0
C0C0
C0C0
C0C0
C0C0
C0C0
E1C0
7F80
3F00
ENDCHAR
STARTCHAR 086
ENCODING 86
SWIDTH 864 0
DWIDTH 12 0
BBX 10 14 0 2
BITMAP
C0C0
C0C0
C0C0
C0C0
C0C0
C0C0
C0C0
C0C0
C0C0
E1C0
7380
3F00
1E00
0C00
ENDCHAR
STARTCHAR 087
ENCODING 87
SWIDTH 864 0
DWIDTH 12 0
BBX 10 14 0 2
BITMAP
C0C0
C0C0
C0C0
C0C0
C0C0
C0C0
C0C0
C0C0
CCC0
CCC0
CCC0
FFC0
7F80
3300
ENDCHAR
STARTCHAR 088
ENCODING 88
SWIDTH 864 0
DWIDTH 12 0
BBX 10 14 0 2
BITMAP
C0C0
C0C0
C0C0
E1C0
7380
3F00
1E00
1E00
3F00
7380
E1C0
C0C0
C0C0
C0C0
ENDCHAR
STARTCHAR 089
ENCODING 89
SWIDTH 864 0
DWIDTH 12 0
BBX 10 14 0 2
BITMAP
C0C0
C0C0
C0C0
E1C0
7380
3F00
1E00
0C00
0C00
0C00
0C00
0C00
0C00
0C00
ENDCHAR
STARTCHAR 090
ENCODING 90
SWIDTH 864 0
DWIDTH 12 0
BBX 10 14 0 2
BITMAP
FFC0
FFC0
00C0
01C0
0380
0700
0E00
1C00
3800
7000
E000
C000
FFC0
FFC0
ENDCHAR
STARTCHAR 091
ENCODING 91
SWIDTH 864 0
DWIDTH 12 0
BBX 6 18 2 0
BITMAP
FC
FC
C0
C0
C0
C0
C0
C0
C0
C0
C0
C0
C0
C0
C0
C0
FC
FC
ENDCHAR
STARTCHAR 092
ENCODING 92
SWIDTH 864 0
DWIDTH 12 0
BBX 10 14 0 2
BITMAP
C000
E000
7000
3000
3000
3800
1C00
0E00
0700
0300
0300
0380
01C0
00C0
ENDCHAR
STARTCHAR 093
ENCODING 93
SWIDTH 864 0
DWIDTH 12 0
BBX 6 18 2 0
BITMAP
FC
FC
0C
0C
0C
0C
0C
0C
0C
0C
0C
0C
0C
0C
0C
0C
FC
FC
ENDCHAR
STARTCHAR 094
ENCODING 94
SWIDTH 864 0
DWIDTH 12 0
BBX 10 6 0 12
BITMAP
0C00
1E00
3F00
7380
E1C0
C0C0
ENDCHAR
STARTCHAR 095
ENCODING 95
SWIDTH 864 0
DWIDTH 12 0
BBX 10 2 0 -2
BITMAP
FFC0
FFC0
ENDCHAR
STARTCHAR 096
ENCODING 96
SWIDTH 864 0
DWIDTH 12 0
BBX 6 6 2 12
BITMAP
C0
E0
70
38
1C
0C
ENDCHAR
STARTCHAR 097
ENCODING 97
SWIDTH 864 0
DWIDTH 12 0
BBX 10 10 0 2
BITMAP
3F00
3F80
01C0
00C0
3FC0
7FC0
C0C0
C0C0
7FC0
3FC0
ENDCHAR
STARTCHAR 098
ENCODING 98
SWIDTH 864 0
DWIDTH 12 0
BBX 10 14 0 2
BITMAP
C000
C000
C000
C000
FF00
FF80
C1C0
C0C0
C0C0
C0C0
C0C0
C1C0
FF80
FF00
ENDCHAR
STARTCHAR 099
ENCODING 99
SWIDTH 864 0
DWIDTH 12 0
BBX 10 10 0 2
BITMAP
3F00
7F00
E000
C000
C000
C000
C0C0
E1C0
7F80
3F00
ENDCHAR
STARTCHAR 100
ENCODING 100
SWIDTH 864 0
DWIDTH 12 0
BBX 10 14 0 2
BITMAP
00C0
00C0
00C0
00C0
3FC0
7FC0
E0C0
C0C0
C0C0
C0C0
C0C0
E0C0
7FC0
3FC0
ENDCHAR
STARTCHAR 101
ENCODING 101
SWIDTH 864 0
DWIDTH 12 0
BBX 10 10 0 2
BITMAP
3F00
7F80
E1C0
C0C0
FF80
FF00
C000
E000
7F00
3F00
ENDCHAR
STARTCHAR 102
ENCODING 102
SWIDTH 864 0
DWIDTH 12 0
BBX 10 14 0 2
BITMAP
0F00
1F80
39C0
30C0
3000
3000
FC00
FC00
3000
3000
3000
3000
3000
3000
ENDCHAR
STARTCHAR 103
ENCODING 103
SWIDTH 864 0
DWIDTH 12 0
BBX 10 14 0 -2
BITMAP
3F00
7F80
E1C0
C0C0
C0C0
C0C0
C0C0
E0C0
7FC0
3FC0
00C0
01C0
3F80
3F00
ENDCHAR
STARTCHAR 104
ENCODING 104
SWIDTH 864 0
DWIDTH 12 0
BBX 10 14 0 2
BITMAP
C000
C000
C000
C000
FF00
FF80
C1C0
C0C0
C0C0
C0C0
C0C0
C0C0
C0C0
C0C0
ENDCHAR
STARTCHAR 105
ENCODING 105
SWIDTH 864 0
DWIDTH 12 0
BBX 6 14 2 2
BITMAP
30
30
00
00
F0
F0
30
30
30
30
30
30
FC
FC
ENDCHAR
STARTCHAR 106
ENCODING 106
SWIDTH 864 0
DWIDTH 12 0
BBX 8 18 2 -2
BITMAP
03
03
00
00
0F
0F
03
03
03
03
03
03
03
03
C3
E7
7E
3C
ENDCHAR
STARTCHAR 107
ENCODING 107
SWIDTH 864 0
DWIDTH 12 0
BBX 10 14 0 2
BITMAP
C000
C000
C000
C000
C0C0
C1C0
C380
C700
FE00
FE00
C700
C380
C1C0
C0C0
ENDCHAR
STARTCHAR 108
ENCODING 108
SWIDTH 864 0
DWIDTH 12 0
BBX 6 14 2 2
BITMAP
F0
F0
30
30
30
30
30
30
30
30
30
30
FC
FC
ENDCHAR
STARTCHAR 109
ENCODING 109
SWIDTH 864 0
DWIDTH 12 0
BBX 10 10 0 2
BITMAP
F300
FF80
DFC0
CCC0
CCC0
CCC0
CCC0
CCC0
CCC0
CCC0
ENDCHAR
STARTCHAR 110
ENCODING 110
SWIDTH 864 0
DWIDTH 12 0
BBX 10 10 0 2
BITMAP
CF00
DF80
F9C0
F0C0
C0C0
C0C0
C0C0
C0C0
C0C0
C0C0
ENDCHAR
STARTCHAR 111
ENCODING 111
SWIDTH 864 0
DWIDTH 12 0
BBX 10 10 0 2
BITMAP
3F00
7F80
E1C0
C0C0
C0C0
C0C0
C0C0
E1C0
7F80
3F00
ENDCHAR
STARTCHAR 112
ENCODING 112
SWIDTH 864 0
DWIDTH 12 0
BBX 10 14 0 -2
BITMAP
FF00
FF80
C1C0
C0C0
C0C0
C0C0
C0C0
C1C0
FF80
FF00
C000
C000
C000
C000
ENDCHAR
STARTCHAR 113
ENCODING 113
SWIDTH 864 0
DWIDTH 12 0
BBX 10 14 0 -2
BITMAP
3FC0
7FC0
E0C0
C0C0
C0C0
C0C0
C0C0
E0C0
7FC0
3FC0
00C0
00C0
00C0
00C0
ENDCHAR
STARTCHAR 114
ENCODING 114
SWIDTH 864 0
DWIDTH 12 0
BBX 10 10 0 2
BITMAP
CF00
DF80
F9C0
F0C0
C000
C000
C000
C000
C000
C000
ENDCHAR
STARTCHAR 115
ENCODING 115
SWIDTH 864 0
DWIDTH 12 0
BBX 10 10 0 2
BITMAP
3FC0
7FC0
C000
C000
7F00
3F80
00C0
00C0
FF80
FF00
ENDCHAR
STARTCHAR 116
ENCODING 116
SWIDTH 864 0
DWIDTH 12 0
BBX 10 14 0 2
BITMAP
0C00
0C00
0C00
0C00
FFC0
FFC0
0C00
0C00
0C00
0C00
0C00
0E00
07C0
03C0
ENDCHAR
STARTCHAR 117
ENCODING 117
SWIDTH 864 0
DWIDTH 12 0
BBX 10 10 0 2
BITMAP
C0C0
C0C0
C0C0
C0C0
C0C0
C0C0
C3C0
E7C0
7EC0
3CC0
ENDCHAR
STARTCHAR 118
ENCODING 118
SWIDTH 864 0
DWIDTH 12 0
BBX 10 10 0 2
BITMAP
C0C0
C0C0
C0C0
C0C0
C0C0
E1C0
7380
3F00
1E00
0C00
ENDCHAR
STARTCHAR 119
ENCODING 119
SWIDTH 864 0
DWIDTH 12 0
BBX 10 10 0 2
BITMAP
C0C0
C0C0
C0C0
C0C0
CCC0
CCC0
CCC0
FFC0
7F80
3300
ENDCHAR
STARTCHAR 120
ENCODING 120
SWIDTH 864 0
DWIDTH 12 0
BBX 10 10 0 2
BITMAP
C0C0
E1C0
7380
3F00
1E00
1E00
3F00
7380
E1C0
C0C0
ENDCHAR
STARTCHAR 121
ENCODING 121
SWIDTH 864 0
DWIDTH 12 0
BBX 10 14 0 -2
BITMAP
C0C0
C0C0
C0C0
C0C0
C0C0
E1C0
7380
3F00
1E00
1C00
3800
7000
E000
C000
ENDCHAR
STARTCHAR 122
ENCODING 122
SWIDTH 864 0
DWIDTH 12 0
BBX 10 10 0 2
BITMAP
FFC0
FFC0
0380
0700
0E00
1C00
3800
7000
FFC0
FFC0
ENDCHAR
STARTCHAR 123
ENCODING 123
SWIDTH 864 0
DWIDTH 12 0
BBX 6 18 2 0
BITMAP
0C
1C
38
30
30
30
30
70
C0
C0
70
30
30
30
30
38
1C
0C
ENDCHAR
STARTCHAR 124
ENCODING 124
SWIDTH 864 0
DWIDTH 12 0
BBX 2 18 4 0
BITMAP
C0
C0
C0
C0
C0
C0
C0
C0
C0
C0
C0
C0
C0
C0
C0
C0
C0
C0
ENDCHAR
STARTCHAR 125
ENCODING 125
SWIDTH 864 0
DWIDTH 12 0
BBX 6 18 2 0
BITMAP
C0
E0
70
30
30
30
30
38
0C
0C
38
30
30
30
30
70
E0
C0
ENDCHAR
STARTCHAR 126
ENCODING 126
SWIDTH 864 0
DWIDTH 12 0
BBX 10 6 0 6
BITMAP
30C0
78C0
DCC0
CEC0
C780
C300
ENDCHAR
STARTCHAR 127
ENCODING 127
SWIDTH 504 0
DWIDTH 7 0
BBX 0 0 0 0
BITMAP
ENDCHAR
STARTCHAR 128
ENCODING 128
SWIDTH 504 0
DWIDTH 7 0
BBX 0 0 0 0
BITMAP
ENDCHAR
STARTCHAR 129
ENCODING 129
SWIDTH 504 0
DWIDTH 7 0
BBX 0 0 0 0
BITMAP
ENDCHAR
STARTCHAR 130
ENCODING 130
SWIDTH 504 0
DWIDTH 7 0
BBX 0 0 0 0
BITMAP
ENDCHAR
STARTCHAR 131
ENCODING 131
SWIDTH 504 0
DWIDTH 7 0
BBX 0 0 0 0
BITMAP
ENDCHAR
STARTCHAR 132
ENCODING 132
SWIDTH 504 0
DWIDTH 7 0
BBX 0 0 0 0
BITMAP
ENDCHAR
STARTCHAR 133
ENCODING 133
SWIDTH 504 0
DWIDTH 7 0
BBX 0 0 0 0
BITMAP
ENDCHAR
STARTCHAR 134
ENCODING 134
SWIDTH 504 0
DWIDTH 7 0
BBX 0 0 0 0
BITMAP
ENDCHAR
STARTCHAR 135
ENCODING 135
SWIDTH 504 0
DWIDTH 7 0
BBX 0 0 0 0
BITMAP
ENDCHAR
STARTCHAR 136
ENCODING 136
SWIDTH 504 0
DWIDTH 7 0
BBX 0 0 0 0
BITMAP
ENDCHAR
STARTCHAR 137
ENCODING 137
SWIDTH 504 0
DWIDTH 7 0
BBX 0 0 0 0
BITMAP
ENDCHAR
STARTCHAR 138
ENCODING 138
SWIDTH 504 0
DWIDTH 7 0
BBX 0 0 0 0
BITMAP
ENDCHAR
STARTCHAR 139
ENCODING 139
SWIDTH 504 0
DWIDTH 7 0
BBX 0 0 0 0
BITMAP
ENDCHAR
STARTCHAR 140
ENCODING 140
SWIDTH 504 0
DWIDTH 7 0
BBX 0 0 0 0
BITMAP
ENDCHAR
STARTCHAR 141
ENCODING 141
SWIDTH 504 0
DWIDTH 7 0
BBX 0 0 0 0
BITMAP
ENDCHAR
STARTCHAR 142
ENCODING 142
SWIDTH 504 0
DWIDTH 7 0
BBX 0 0 0 0
BITMAP
ENDCHAR
STARTCHAR 143
ENCODING 143
SWIDTH 504 0
DWIDTH 7 0
BBX 0 0 0 0
BITMAP
ENDCHAR
STARTCHAR 144
ENCODING 144
SWIDTH 504 0
DWIDTH 7 0
BBX 0 0 0 0
BITMAP
ENDCHAR
STARTCHAR 145
ENCODING 145
SWIDTH 504 0
DWIDTH 7 0
BBX 0 0 0 0
BITMAP
ENDCHAR
STARTCHAR 146
ENCODING 146
SWIDTH 504 0
DWIDTH 7 0
BBX 0 0 0 0
BITMAP
ENDCHAR
STARTCHAR 147
ENCODING 147
SWIDTH 504 0
DWIDTH 7 0
BBX 0 0 0 0
BITMAP
ENDCHAR
STARTCHAR 148
ENCODING 148
SWIDTH 504 0
DWIDTH 7 0
BBX 0 0 0 0
BITMAP
ENDCHAR
STARTCHAR 149
ENCODING 149
SWIDTH 504 0
DWIDTH 7 0
BBX 0 0 0 0
BITMAP
ENDCHAR
STARTCHAR 150
ENCODING 150
SWIDTH 504 0
DWIDTH 7 0
BBX 0 0 0 0
BITMAP
ENDCHAR
STARTCHAR 151
ENCODING 151
SWIDTH 504 0
DWIDTH 7 0
BBX 0 0 0 0
BITMAP
ENDCHAR
STARTCHAR 152
ENCODING 152
SWIDTH 504 0
DWIDTH 7 0
BBX 0 0 0 0
BITMAP
ENDCHAR
STARTCHAR 153
ENCODING 153
SWIDTH 504 0
DWIDTH 7 0
BBX 0 0 0 0
BITMAP
ENDCHAR
STARTCHAR 154
ENCODING 154
SWIDTH 504 0
DWIDTH 7 0
BBX 0 0 0 0
BITMAP
ENDCHAR
STARTCHAR 155
ENCODING 155
SWIDTH 504 0
DWIDTH 7 0
BBX 0 0 0 0
BITMAP
ENDCHAR
STARTCHAR 156
ENCODING 156
SWIDTH 504 0
DWIDTH 7 0
BBX 0 0 0 0
BITMAP
ENDCHAR
STARTCHAR 157
ENCODING 157
SWIDTH 504 0
DWIDTH 7 0
BBX 0 0 0 0
BITMAP
ENDCHAR
STARTCHAR 158
ENCODING 158
SWIDTH 504 0
DWIDTH 7 0
BBX 0 0 0 0
BITMAP
ENDCHAR
STARTCHAR 159
ENCODING 159
SWIDTH 504 0
DWIDTH 7 0
BBX 0 0 0 0
BITMAP
ENDCHAR
STARTCHAR 160
ENCODING 160
SWIDTH 864 0
DWIDTH 12 0
BBX 0 0 0 0
BITMAP
ENDCHAR
STARTCHAR 161
ENCODING 161
SWIDTH 864 0
DWIDTH 12 0
BBX 2 14 4 2
BITMAP
C0
C0
00
00
C0
C0
C0
C0
C0
C0
C0
C0
C0
C0
ENDCHAR
STARTCHAR 162
ENCODING 162
SWIDTH 864 0
DWIDTH 12 0
BBX 10 14 0 0
BITMAP
0C00
0C00
3F00
3F00
CCC0
CCC0
CC00
CC00
CCC0
CCC0
3F00
3F00
0C00
0C00
ENDCHAR
STARTCHAR 163
ENCODING 163
SWIDTH 864 0
DWIDTH 12 0
BBX 10 14 0 2
BITMAP
0F00
0F00
30C0
30C0
3000
3000
FC00
FC00
3000
3000
30C0
30C0
CF00
CF00
ENDCHAR
STARTCHAR 164
ENCODING 164
SWIDTH 864 0
DWIDTH 12 0
BBX 10 10 0 2
BITMAP
CCC0
CCC0
3300
3300
C0C0
C0C0
3300
3300
CCC0
CCC0
ENDCHAR
STARTCHAR 165
ENCODING 165
SWIDTH 864 0
DWIDTH 12 0
BBX 10 14 0 2
BITMAP
C0C0
C0C0
3300
3300
FFC0
FFC0
0C00
0C00
FFC0
FFC0
0C00
0C00
0C00
0C00
ENDCHAR
STARTCHAR 166
ENCODING 166
SWIDTH 864 0
DWIDTH 12 0
BBX 2 14 4 2
BITMAP
C0
C0
C0
C0
C0
C0
00
00
C0
C0
C0
C0
C0
C0
ENDCHAR
STARTCHAR 167
ENCODING 167
SWIDTH 864 0
DWIDTH 12 0
BBX 8 16 2 2
BITMAP
3F
3F
C0
C0
3C
3C
C3
C3
C3
C3
3C
3C
03
03
FC
FC
ENDCHAR
STARTCHAR 168
ENCODING 168
SWIDTH 864 0
DWIDTH 12 0
BBX 6 2 2 16
BITMAP
CC
CC
ENDCHAR
STARTCHAR 169
ENCODING 169
SWIDTH 864 0
DWIDTH 12 0
BBX 12 14 0 2
BITMAP
3FC0
3FC0
C030
C030
CF30
CF30
CC30
CC30
CF30
CF30
C030
C030
3FC0
3FC0
ENDCHAR
STARTCHAR 170
ENCODING 170
SWIDTH 864 0
DWIDTH 12 0
BBX 6 10 2 10
BITMAP
3C
3C
CC
CC
3C
3C
00
00
FC
FC
ENDCHAR
STARTCHAR 171
ENCODING 171
SWIDTH 864 0
DWIDTH 12 0
BBX 10 10 0 2
BITMAP
0CC0
0CC0
3300
3300
CC00
CC00
3300
3300
0CC0
0CC0
ENDCHAR
STARTCHAR 172
ENCODING 172
SWIDTH 864 0
DWIDTH 12 0
BBX 10 6 0 4
BITMAP
FFC0
FFC0
00C0
00C0
00C0
00C0
ENDCHAR
STARTCHAR 173
ENCODING 173
SWIDTH 864 0
DWIDTH 12 0
BBX 6 2 2 8
BITMAP
FC
FC
ENDCHAR
STARTCHAR 174
ENCODING 174
SWIDTH 864 0
DWIDTH 12 0
BBX 12 14 0 2
BITMAP
3FC0
3FC0
C030
C030
CF30
CF30
CC30
CC30
CC30
CC30
C030
C030
3FC0
3FC0
ENDCHAR
STARTCHAR 175
ENCODING 175
SWIDTH 864 0
DWIDTH 12 0
BBX 10 2 0 16
BITMAP
FFC0
FFC0
ENDCHAR
STARTCHAR 176
ENCODING 176
SWIDTH 864 0
DWIDTH 12 0
BBX 8 8 2 12
BITMAP
3C
3C
C3
C3
C3
C3
3C
3C
ENDCHAR
STARTCHAR 177
ENCODING 177
SWIDTH 864 0
DWIDTH 12 0
BBX 10 14 0 2
BITMAP
0C00
0C00
0C00
0C00
FFC0
FFC0
0C00
0C00
0C00
0C00
0000
0000
FFC0
FFC0
ENDCHAR
STARTCHAR 178
ENCODING 178
SWIDTH 864 0
DWIDTH 12 0
BBX 6 10 2 10
BITMAP
30
30
CC
CC
0C
0C
30
30
FC
FC
ENDCHAR
STARTCHAR 179
ENCODING 179
SWIDTH 864 0
DWIDTH 12 0
BBX 6 10 2 10
BITMAP
F0
F0
0C
0C
30
30
0C
0C
F0
F0
ENDCHAR
STARTCHAR 180
ENCODING 180
SWIDTH 864 0
DWIDTH 12 0
BBX 6 6 2 12
BITMAP
0C
0C
30
30
C0
C0
ENDCHAR
STARTCHAR 181
ENCODING 181
SWIDTH 864 0
DWIDTH 12 0
BBX 10 14 0 -2
BITMAP
C0C0
C0C0
C0C0
C0C0
C0C0
C0C0
C3C0
C3C0
FCC0
FCC0
C000
C000
C000
C000
ENDCHAR
STARTCHAR 182
ENCODING 182
SWIDTH 864 0
DWIDTH 12 0
BBX 10 16 0 2
BITMAP
3FC0
3FC0
FCC0
FCC0
FCC0
FCC0
FCC0
FCC0
3CC0
3CC0
0CC0
0CC0
0CC0
0CC0
0CC0
0CC0
ENDCHAR
STARTCHAR 183
ENCODING 183
SWIDTH 864 0
DWIDTH 12 0
BBX 4 4 4 8
BITMAP
F0
F0
F0
F0
ENDCHAR
STARTCHAR 184
ENCODING 184
SWIDTH 864 0
DWIDTH 12 0
BBX 6 4 2 -2
BITMAP
0C
0C
F0
F0
ENDCHAR
STARTCHAR 185
ENCODING 185
SWIDTH 864 0
DWIDTH 12 0
BBX 6 10 2 10
BITMAP
30
30
F0
F0
30
30
30
30
FC
FC
ENDCHAR
STARTCHAR 186
ENCODING 186
SWIDTH 864 0
DWIDTH 12 0
BBX 6 10 2 12
BITMAP
30
30
CC
CC
30
30
00
00
FC
FC
ENDCHAR
STARTCHAR 187
ENCODING 187
SWIDTH 864 0
DWIDTH 12 0
BBX 10 10 0 2
BITMAP
CC00
CC00
3300
3300
0CC0
0CC0
3300
3300
CC00
CC00
ENDCHAR
STARTCHAR 188
ENCODING 188
SWIDTH 864 0
DWIDTH 12 0
BBX 10 20 0 2
BITMAP
3000
3000
F000
F000
30C0
30C0
3300
3300
3C00
3C00
3300
3300
CF00
CF00
3300
3300
3FC0
3FC0
0300
0300
ENDCHAR
STARTCHAR 189
ENCODING 189
SWIDTH 864 0
DWIDTH 12 0
BBX 10 20 0 2
BITMAP
3000
3000
F000
F000
30C0
30C0
3300
3300
3C00
3C00
3300
3300
CCC0
CCC0
00C0
00C0
0300
0300
0FC0
0FC0
ENDCHAR
STARTCHAR 190
ENCODING 190
SWIDTH 864 0
DWIDTH 12 0
BBX 10 20 0 2
BITMAP
F000
F000
0C00
0C00
30C0
30C0
0F00
0F00
FC00
FC00
3300
3300
CF00
CF00
3300
3300
3FC0
3FC0
0300
0300
ENDCHAR
STARTCHAR 191
ENCODING 191
SWIDTH 864 0
DWIDTH 12 0
BBX 10 14 0 2
BITMAP
0C00
0C00
0000
0000
0C00
0C00
0C00
0C00
3000
3000
C0C0
C0C0
3F00
3F00
ENDCHAR
STARTCHAR 192
ENCODING 192
SWIDTH 864 0
DWIDTH 12 0
BBX 10 20 0 2
BITMAP
3000
3000
0C00
0C00
0000
0000
3F00
3F00
C0C0
C0C0
C0C0
C0C0
FFC0
FFC0
C0C0
C0C0
C0C0
C0C0
C0C0
C0C0
ENDCHAR
STARTCHAR 193
ENCODING 193
SWIDTH 864 0
DWIDTH 12 0
BBX 10 20 0 2
BITMAP
0300
0300
0C00
0C00
0000
0000
3F00
3F00
C0C0
C0C0
C0C0
C0C0
FFC0
FFC0
C0C0
C0C0
C0C0
C0C0
C0C0
C0C0
ENDCHAR
STARTCHAR 194
ENCODING 194
SWIDTH 864 0
DWIDTH 12 0
BBX 10 20 0 2
BITMAP
0C00
0C00
3300
3300
0000
0000
3F00
3F00
C0C0
C0C0
C0C0
C0C0
FFC0
FFC0
C0C0
C0C0
C0C0
C0C0
C0C0
C0C0
ENDCHAR
STARTCHAR 195
ENCODING 195
SWIDTH 864 0
DWIDTH 12 0
BBX 10 20 0 2
BITMAP
3CC0
3CC0
CF00
CF00
0000
0000
3F00
3F00
C0C0
C0C0
C0C0
C0C0
FFC0
FFC0
C0C0
C0C0
C0C0
C0C0
C0C0
C0C0
ENDCHAR
STARTCHAR 196
ENCODING 196
SWIDTH 864 0
DWIDTH 12 0
BBX 10 18 0 2
BITMAP
3300
3300
0000
0000
3F00
3F00
C0C0
C0C0
C0C0
C0C0
FFC0
FFC0
C0C0
C0C0
C0C0
C0C0
C0C0
C0C0
ENDCHAR
STARTCHAR 197
ENCODING 197
SWIDTH 864 0
DWIDTH 12 0
BBX 10 20 0 2
BITMAP
0C00
0C00
3300
3300
0C00
0C00
3F00
3F00
C0C0
C0C0
C0C0
C0C0
FFC0
FFC0
C0C0
C0C0
C0C0
C0C0
C0C0
C0C0
ENDCHAR
STARTCHAR 198
ENCODING 198
SWIDTH 864 0
DWIDTH 12 0
BBX 10 14 0 2
BITMAP
3FC0
3FC0
CC00
CC00
CC00
CC00
FF00
FF00
CC00
CC00
CC00
CC00
CFC0
CFC0
ENDCHAR
STARTCHAR 199
ENCODING 199
SWIDTH 864 0
DWIDTH 12 0
BBX 10 18 0 -2
BITMAP
3F00
3F00
C0C0
C0C0
C000
C000
C000
C000
C000
C000
C0C0
C0C0
3F00
3F00
0300
0300
3C00
3C00
ENDCHAR
STARTCHAR 200
ENCODING 200
SWIDTH 864 0
DWIDTH 12 0
BBX 10 20 0 2
BITMAP
3000
3000
0C00
0C00
0000
0000
FFC0
FFC0
C000
C000
C000
C000
FF00
FF00
C000
C000
C000
C000
FFC0
FFC0
ENDCHAR
STARTCHAR 201
ENCODING 201
SWIDTH 864 0
DWIDTH 12 0
BBX 10 20 0 2
BITMAP
0300
0300
0C00
0C00
0000
0000
FFC0
FFC0
C000
C000
C000
C000
FF00
FF00
C000
C000
C000
C000
FFC0
FFC0
ENDCHAR
STARTCHAR 202
ENCODING 202
SWIDTH 864 0
DWIDTH 12 0
BBX 10 20 0 2
BITMAP
0C00
0C00
3300
3300
0000
0000
FFC0
FFC0
C000
C000
C000
C000
FF00
FF00
C000
C000
C000
C000
FFC0
FFC0
ENDCHAR
STARTCHAR 203
ENCODING 203
SWIDTH 864 0
DWIDTH 12 0
BBX 10 18 0 2
BITMAP
3300
3300
0000
0000
FFC0
FFC0
C000
C000
C000
C000
FF00
FF00
C000
C000
C000
C000
FFC0
FFC0
ENDCHAR
STARTCHAR 204
ENCODING 204
SWIDTH 864 0
DWIDTH 12 0
BBX 6 20 2 2
BITMAP
C0
C0
30
30
00
00
FC
FC
30
30
30
30
30
30
30
30
30
30
FC
FC
ENDCHAR
STARTCHAR 205
ENCODING 205
SWIDTH 864 0
DWIDTH 12 0
BBX 6 20 2 2
BITMAP
0C
0C
30
30
00
00
FC
FC
30
30
30
30
30
30
30
30
30
30
FC
FC
ENDCHAR
STARTCHAR 206
ENCODING 206
SWIDTH 864 0
DWIDTH 12 0
BBX 6 20 2 2
BITMAP
30
30
CC
CC
00
00
FC
FC
30
30
30
30
30
30
30
30
30
30
FC
FC
ENDCHAR
STARTCHAR 207
ENCODING 207
SWIDTH 864 0
DWIDTH 12 0
BBX 6 18 2 2
BITMAP
CC
CC
00
00
FC
FC
30
30
30
30
30
30
30
30
30
30
FC
FC
ENDCHAR
STARTCHAR 208
ENCODING 208
SWIDTH 864 0
DWIDTH 12 0
BBX 10 14 0 2
BITMAP
3F00
3F00
30C0
30C0
30C0
30C0
FCC0
FCC0
30C0
30C0
30C0
30C0
3F00
3F00
ENDCHAR
STARTCHAR 209
ENCODING 209
SWIDTH 864 0
DWIDTH 12 0
BBX 10 20 0 2
BITMAP
3CC0
3CC0
CF00
CF00
0000
0000
C0C0
C0C0
C0C0
C0C0
F0C0
F0C0
CCC0
CCC0
C3C0
C3C0
C0C0
C0C0
C0C0
C0C0
ENDCHAR
STARTCHAR 210
ENCODING 210
SWIDTH 864 0
DWIDTH 12 0
BBX 10 20 0 2
BITMAP
3000
3000
0C00
0C00
0000
0000
3F00
3F00
C0C0
C0C0
C0C0
C0C0
C0C0
C0C0
C0C0
C0C0
C0C0
C0C0
3F00
3F00
ENDCHAR
STARTCHAR 211
ENCODING 211
SWIDTH 864 0
DWIDTH 12 0
BBX 10 20 0 2
BITMAP
0300
0300
0C00
0C00
0000
0000
3F00
3F00
C0C0
C0C0
C0C0
C0C0
C0C0
C0C0
C0C0
C0C0
C0C0
C0C0
3F00
3F00
ENDCHAR
STARTCHAR 212
ENCODING 212
SWIDTH 864 0
DWIDTH 12 0
BBX 10 20 0 2
BITMAP
0C00
0C00
3300
3300
0000
0000
3F00
3F00
C0C0
C0C0
C0C0
C0C0
C0C0
C0C0
C0C0
C0C0
C0C0
C0C0
3F00
3F00
ENDCHAR
STARTCHAR 213
ENCODING 213
SWIDTH 864 0
DWIDTH 12 0
BBX 10 20 0 2
BITMAP
3CC0
3CC0
CF00
CF00
0000
0000
3F00
3F00
C0C0
C0C0
C0C0
C0C0
C0C0
C0C0
C0C0
C0C0
C0C0
C0C0
3F00
3F00
ENDCHAR
STARTCHAR 214
ENCODING 214
SWIDTH 864 0
DWIDTH 12 0
BBX 10 18 0 2
BITMAP
3300
3300
0000
0000
3F00
3F00
C0C0
C0C0
C0C0
C0C0
C0C0
C0C0
C0C0
C0C0
C0C0
C0C0
3F00
3F00
ENDCHAR
STARTCHAR 215
ENCODING 215
SWIDTH 864 0
DWIDTH 12 0
BBX 10 10 0 4
BITMAP
C0C0
C0C0
3300
3300
0C00
0C00
3300
3300
C0C0
C0C0
ENDCHAR
STARTCHAR 216
ENCODING 216
SWIDTH 864 0
DWIDTH 12 0
BBX 10 18 0 0
BITMAP
00C0
00C0
3F00
3F00
C3C0
C3C0
CCC0
CCC0
CCC0
CCC0
CCC0
CCC0
F0C0
F0C0
3F00
3F00
C000
C000
ENDCHAR
STARTCHAR 217
ENCODING 217
SWIDTH 864 0
DWIDTH 12 0
BBX 10 20 0 2
BITMAP
3000
3000
0C00
0C00
0000
0000
C0C0
C0C0
C0C0
C0C0
C0C0
C0C0
C0C0
C0C0
C0C0
C0C0
C0C0
C0C0
3F00
3F00
ENDCHAR
STARTCHAR 218
ENCODING 218
SWIDTH 864 0
DWIDTH 12 0
BBX 10 20 0 2
BITMAP
0300
0300
0C00
0C00
0000
0000
C0C0
C0C0
C0C0
C0C0
C0C0
C0C0
C0C0
C0C0
C0C0
C0C0
C0C0
C0C0
3F00
3F00
ENDCHAR
STARTCHAR 219
ENCODING 219
SWIDTH 864 0
DWIDTH 12 0
BBX 10 20 0 2
BITMAP
0C00
0C00
3300
3300
0000
0000
C0C0
C0C0
C0C0
C0C0
C0C0
C0C0
C0C0
C0C0
C0C0
C0C0
C0C0
C0C0
3F00
3F00
ENDCHAR
STARTCHAR 220
ENCODING 220
SWIDTH 864 0
DWIDTH 12 0
BBX 10 18 0 2
BITMAP
3300
3300
0000
0000
C0C0
C0C0
C0C0
C0C0
C0C0
C0C0
C0C0
C0C0
C0C0
C0C0
C0C0
C0C0
3F00
3F00
ENDCHAR
STARTCHAR 221
ENCODING 221
SWIDTH 864 0
DWIDTH 12 0
BBX 10 20 0 2
BITMAP
0300
0300
0C00
0C00
0000
0000
C0C0
C0C0
C0C0
C0C0
3300
3300
0C00
0C00
0C00
0C00
0C00
0C00
0C00
0C00
ENDCHAR
STARTCHAR 222
ENCODING 222
SWIDTH 864 0
DWIDTH 12 0
BBX 8 14 2 2
BITMAP
C0
C0
FC
FC
C3
C3
C3
C3
C3
C3
FC
FC
C0
C0
ENDCHAR
STARTCHAR 223
ENCODING 223
SWIDTH 864 0
DWIDTH 12 0
BBX 10 14 0 2
BITMAP
3F00
3F00
C0C0
C0C0
C300
C300
CC00
CC00
C300
C300
C0C0
C0C0
CF00
CF00
ENDCHAR
STARTCHAR 224
ENCODING 224
SWIDTH 864 0
DWIDTH 12 0
BBX 10 16 0 2
BITMAP
3000
3000
0C00
0C00
0000
0000
3F00
3F00
00C0
00C0
3FC0
3FC0
C0C0
C0C0
3FC0
3FC0
ENDCHAR
STARTCHAR 225
ENCODING 225
SWIDTH 864 0
DWIDTH 12 0
BBX 10 16 0 2
BITMAP
0300
0300
0C00
0C00
0000
0000
3F00
3F00
00C0
00C0
3FC0
3FC0
C0C0
C0C0
3FC0
3FC0
ENDCHAR
STARTCHAR 226
ENCODING 226
SWIDTH 864 0
DWIDTH 12 0
BBX 10 16 0 2
BITMAP
0C00
0C00
3300
3300
0000
0000
3F00
3F00
00C0
00C0
3FC0
3FC0
C0C0
C0C0
3FC0
3FC0
ENDCHAR
STARTCHAR 227
ENCODING 227
SWIDTH 864 0
DWIDTH 12 0
BBX 10 16 0 2
BITMAP
3CC0
3CC0
CF00
CF00
0000
0000
3F00
3F00
00C0
00C0
3FC0
3FC0
C0C0
C0C0
3FC0
3FC0
ENDCHAR
STARTCHAR 228
ENCODING 228
SWIDTH 864 0
DWIDTH 12 0
BBX 10 14 0 2
BITMAP
3300
3300
0000
0000
3F00
3F00
00C0
00C0
3FC0
3FC0
C0C0
C0C0
3FC0
3FC0
ENDCHAR
STARTCHAR 229
ENCODING 229
SWIDTH 864 0
DWIDTH 12 0
BBX 10 16 0 2
BITMAP
0C00
0C00
3300
3300
0C00
0C00
3F00
3F00
00C0
00C0
3FC0
3FC0
C0C0
C0C0
3FC0
3FC0
ENDCHAR
STARTCHAR 230
ENCODING 230
SWIDTH 864 0
DWIDTH 12 0
BBX 10 10 0 2
BITMAP
3F00
3F00
0CC0
0CC0
3F00
3F00
CC00
CC00
3FC0
3FC0
ENDCHAR
STARTCHAR 231
ENCODING 231
SWIDTH 864 0
DWIDTH 12 0
BBX 10 14 0 -2
BITMAP
3F00
3F00
C0C0
C0C0
C000
C000
C0C0
C0C0
3F00
3F00
0300
0300
3C00
3C00
ENDCHAR
STARTCHAR 232
ENCODING 232
SWIDTH 864 0
DWIDTH 12 0
BBX 10 16 0 2
BITMAP
3000
3000
0C00
0C00
0000
0000
3F00
3F00
C0C0
C0C0
FF00
FF00
C000
C000
3F00
3F00
ENDCHAR
STARTCHAR 233
ENCODING 233
SWIDTH 864 0
DWIDTH 12 0
BBX 10 16 0 2
BITMAP
0300
0300
0C00
0C00
0000
0000
3F00
3F00
C0C0
C0C0
FF00
FF00
C000
C000
3F00
3F00
ENDCHAR
STARTCHAR 234
ENCODING 234
SWIDTH 864 0
DWIDTH 12 0
BBX 10 16 0 2
BITMAP
0C00
0C00
3300
3300
0000
0000
3F00
3F00
C0C0
C0C0
FF00
FF00
C000
C000
3F00
3F00
ENDCHAR
STARTCHAR 235
ENCODING 235
SWIDTH 864 0
DWIDTH 12 0
BBX 10 14 0 2
BITMAP
3300
3300
0000
0000
3F00
3F00
C0C0
C0C0
FF00
FF00
C000
C000
3F00
3F00
ENDCHAR
STARTCHAR 236
ENCODING 236
SWIDTH 864 0
DWIDTH 12 0
BBX 6 16 2 2
BITMAP
C0
C0
30
30
00
00
F0
F0
30
30
30
30
30
30
FC
FC
ENDCHAR
STARTCHAR 237
ENCODING 237
SWIDTH 864 0
DWIDTH 12 0
BBX 6 16 2 2
BITMAP
0C
0C
30
30
00
00
F0
F0
30
30
30
30
30
30
FC
FC
ENDCHAR
STARTCHAR 238
ENCODING 238
SWIDTH 864 0
DWIDTH 12 0
BBX 6 16 2 2
BITMAP
30
30
CC
CC
00
00
F0
F0
30
30
30
30
30
30
FC
FC
ENDCHAR
STARTCHAR 239
ENCODING 239
SWIDTH 864 0
DWIDTH 12 0
BBX 6 14 2 2
BITMAP
CC
CC
00
00
F0
F0
30
30
30
30
30
30
FC
FC
ENDCHAR
STARTCHAR 240
ENCODING 240
SWIDTH 864 0
DWIDTH 12 0
BBX 10 18 0 2
BITMAP
3300
3300
0C00
0C00
3300
3300
00C0
00C0
3FC0
3FC0
C0C0
C0C0
C0C0
C0C0
C0C0
C0C0
3F00
3F00
ENDCHAR
STARTCHAR 241
ENCODING 241
SWIDTH 864 0
DWIDTH 12 0
BBX 10 16 0 2
BITMAP
3CC0
3CC0
CF00
CF00
0000
0000
CF00
CF00
F0C0
F0C0
C0C0
C0C0
C0C0
C0C0
C0C0
C0C0
ENDCHAR
STARTCHAR 242
ENCODING 242
SWIDTH 864 0
DWIDTH 12 0
BBX 10 16 0 2
BITMAP
3000
3000
0C00
0C00
0000
0000
3F00
3F00
C0C0
C0C0
C0C0
C0C0
C0C0
C0C0
3F00
3F00
ENDCHAR
STARTCHAR 243
ENCODING 243
SWIDTH 864 0
DWIDTH 12 0
BBX 10 16 0 2
BITMAP
0300
0300
0C00
0C00
0000
0000
3F00
3F00
C0C0
C0C0
C0C0
C0C0
C0C0
C0C0
3F00
3F00
ENDCHAR
STARTCHAR 244
ENCODING 244
SWIDTH 864 0
DWIDTH 12 0
BBX 10 16 0 2
BITMAP
0C00
0C00
3300
3300
0000
0000
3F00
3F00
C0C0
C0C0
C0C0
C0C0
C0C0
C0C0
3F00
3F00
ENDCHAR
STARTCHAR 245
ENCODING 245
SWIDTH 864 0
DWIDTH 12 0
BBX 10 16 0 2
BITMAP
3CC0
3CC0
CF00
CF00
0000
0000
3F00
3F00
C0C0
C0C0
C0C0
C0C0
C0C0
C0C0
3F00
3F00
ENDCHAR
STARTCHAR 246
ENCODING 246
SWIDTH 864 0
DWIDTH 12 0
BBX 10 14 0 2
BITMAP
3300
3300
0000
0000
3F00
3F00
C0C0
C0C0
C0C0
C0C0
C0C0
C0C0
3F00
3F00
ENDCHAR
STARTCHAR 247
ENCODING 247
SWIDTH 864 0
DWIDTH 12 0
BBX 10 10 0 4
BITMAP
0C00
0C00
0000
0000
FFC0
FFC0
0000
0000
0C00
0C00
ENDCHAR
STARTCHAR 248
ENCODING 248
SWIDTH 864 0
DWIDTH 12 0
BBX 10 10 0 2
BITMAP
3FC0
3FC0
C3C0
C3C0
CCC0
CCC0
F0C0
F0C0
FF00
FF00
ENDCHAR
STARTCHAR 249
ENCODING 249
SWIDTH 864 0
DWIDTH 12 0
BBX 10 16 0 2
BITMAP
3000
3000
0C00
0C00
0000
0000
C0C0
C0C0
C0C0
C0C0
C0C0
C0C0
C0C0
C0C0
3F00
3F00
ENDCHAR
STARTCHAR 250
ENCODING 250
SWIDTH 864 0
DWIDTH 12 0
BBX 10 16 0 2
BITMAP
0300
0300
0C00
0C00
0000
0000
C0C0
C0C0
C0C0
C0C0
C0C0
C0C0
C0C0
C0C0
3F00
3F00
ENDCHAR
STARTCHAR 251
ENCODING 251
SWIDTH 864 0
DWIDTH 12 0
BBX 10 16 0 2
BITMAP
0C00
0C00
3300
3300
0000
0000
C0C0
C0C0
C0C0
C0C0
C0C0
C0C0
C0C0
C0C0
3F00
3F00
ENDCHAR
STARTCHAR 252
ENCODING 252
SWIDTH 864 0
DWIDTH 12 0
BBX 10 14 0 2
BITMAP
3300
3300
0000
0000
C0C0
C0C0
C0C0
C0C0
C0C0
C0C0
C0C0
C0C0
3F00
3F00
ENDCHAR
STARTCHAR 253
ENCODING 253
SWIDTH 864 0
DWIDTH 12 0
BBX 10 20 0 -2
BITMAP
0300
0300
0C00
0C00
0000
0000
C0C0
C0C0
C0C0
C0C0
C0C0
C0C0
3300
3300
0C00
0C00
3000
3000
C000
C000
ENDCHAR
STARTCHAR 254
ENCODING 254
SWIDTH 864 0
DWIDTH 12 0
BBX 10 18 0 -2
BITMAP
C000
C000
C000
C000
FF00
FF00
C0C0
C0C0
C0C0
C0C0
C0C0
C0C0
FF00
FF00
C000
C000
C000
C000
ENDCHAR
STARTCHAR 255
ENCODING 255
SWIDTH 864 0
DWIDTH 12 0
BBX 10 18 0 -2
BITMAP
3300
3300
0000
0000
C0C0
C0C0
C0C0
C0C0
C0C0
C0C0
3300
3300
0C00
0C00
3000
3000
C000
C000
ENDCHAR
ENDFONT
